<?xml version="1.0" standalone="no"?><!DOCTYPE svg PUBLIC "-//W3C//DTD SVG 1.1//EN" "http://www.w3.org/Graphics/SVG/1.1/DTD/svg11.dtd"><svg t="1705472337053" class="icon" viewBox="0 0 1024 1024" version="1.1" xmlns="http://www.w3.org/2000/svg" p-id="13946" xmlns:xlink="http://www.w3.org/1999/xlink" width="200" height="200"><path d="M897.92 676.48c-17.173333-27.306667-40.64-48.106667-65.92-67.733333V432c0-62.08-19.626667-121.173333-56.746667-170.773333-32.533333-43.413333-75.84-76.48-126.186666-96.106667-8-25.706667-23.146667-48.853333-43.733334-66.56C579.413333 76.266667 546.24 64 512 64s-67.413333 12.266667-93.44 34.56c-20.586667 17.706667-35.733333 40.853333-43.733333 66.56-50.24 19.733333-93.653333 52.693333-126.186667 96.106667C211.626667 310.826667 192 369.92 192 432v176.853333c-25.28 19.626667-48.853333 40.426667-65.92 67.733334C105.493333 709.226667 96 748.373333 96 800c0 17.706667 14.293333 32 32 32h202.986667c11.52 32.533333 31.893333 61.76 58.773333 84.053333C424 944.426667 467.413333 960 512 960s88-15.573333 122.24-43.946667c26.88-22.293333 47.253333-51.52 58.773333-84.053333H896c17.706667 0 32-14.293333 32-32 0-51.626667-9.493333-90.773333-30.08-123.52zM512 896c-46.506667 0-88.426667-25.386667-110.826667-64h221.653334c-22.4 38.613333-64.32 64-110.826667 64zM161.706667 768c6.826667-58.773333 34.56-82.453333 81.493333-117.76 8-6.08 12.8-15.466667 12.8-25.6V432c0-96.853333 62.613333-182.08 155.733333-212.053333 11.413333-3.626667 19.733333-13.333333 21.76-25.173334 6.506667-38.613333 39.573333-66.773333 78.613334-66.773333s72.106667 28.053333 78.613333 66.773333c2.026667 11.84 10.346667 21.546667 21.76 25.173334 93.12 29.973333 155.733333 115.306667 155.733333 212.053333v192.64c0 10.026667 4.693333 19.52 12.8 25.6 46.933333 35.306667 74.666667 58.986667 81.493334 117.76h-700.8z" p-id="13947" fill="#e6e6e6"></path></svg>