<?xml version="1.0" standalone="no"?><!DOCTYPE svg PUBLIC "-//W3C//DTD SVG 1.1//EN" "http://www.w3.org/Graphics/SVG/1.1/DTD/svg11.dtd"><svg t="1705472194847" class="icon" viewBox="0 0 1024 1024" version="1.1" xmlns="http://www.w3.org/2000/svg" p-id="10358" xmlns:xlink="http://www.w3.org/1999/xlink" width="200" height="200"><path d="M42.666667 725.333333V298.666667c0-15.146667 7.872-30.293333 23.594666-38.165334l426.666667-213.333333a42.666667 42.666667 0 0 1 38.144 0l426.666667 213.333333A42.176 42.176 0 0 1 981.333333 298.666667v426.666666a42.666667 42.666667 0 0 1-23.594666 38.165334l-426.24 213.12a43.2 43.2 0 0 1-18.986667 4.757333 42.602667 42.602667 0 0 1-19.989333-4.757333L66.261333 763.52A42.666667 42.666667 0 0 1 42.666667 725.333333z m85.333333-26.368l341.333333 170.666667V538.368l-341.333333-170.666667v331.264z m426.666667-160.597333v331.264l341.333333-170.666667V367.701333l-341.333333 170.666667zM180.736 298.666667L512 464.298667 843.264 298.666667 512 133.034667 180.736 298.666667z" fill="#8a8a8a" p-id="10359"></path></svg>