<svg width="23" height="27" viewBox="0 0 23 27" fill="none" xmlns="http://www.w3.org/2000/svg">
<g id="Group 9288">
<path id="Vector" d="M10.7506 1.61433C10.7507 1.61429 10.7508 1.61425 10.7509 1.6142L11.572 1.13852L12.3932 1.61421C12.3933 1.61425 12.3934 1.61429 12.3934 1.61433C15.3027 3.30112 18.4876 4.38463 21.7781 4.80702V16.0475C21.7781 16.0475 21.7781 16.0475 21.7781 16.0475C21.7779 17.3428 21.4443 18.6112 20.8159 19.715C20.1876 20.8187 19.29 21.7137 18.2242 22.3072L11.572 26.0107L4.91983 22.3072C4.9198 22.3072 4.91978 22.3072 4.91975 22.3072C2.74691 21.0971 1.36599 18.6909 1.36599 16.0475V4.80702C4.65622 4.38462 7.84122 3.3013 10.7506 1.61433Z" fill="#0076D9" stroke="#1DB5F4" stroke-width="1.19291"/>
<path id="Vector_2" d="M11.6382 7.87207C10.2326 7.8736 8.88493 8.43261 7.89092 9.42646C6.89691 10.4203 6.33769 11.7679 6.33594 13.1735C6.33747 14.5793 6.89659 15.927 7.89062 16.9211C8.88466 17.9151 10.2324 18.4742 11.6382 18.4758C13.0438 18.474 14.3914 17.9148 15.3852 16.9208C16.3791 15.9268 16.9381 14.5791 16.9396 13.1735C16.9379 11.768 16.3788 10.4206 15.3849 9.42676C14.3911 8.43292 13.0437 7.87382 11.6382 7.87207ZM12.4038 13.3149V15.2496C12.4038 15.6737 12.0615 16.016 11.658 16.016H11.6382C11.2149 16.016 10.8718 15.6737 10.8718 15.2703V13.3356C10.6646 13.2083 10.4931 13.0306 10.3732 12.819C10.2534 12.6075 10.1891 12.3691 10.1863 12.1259C10.1863 11.319 10.8312 10.6741 11.6175 10.6741C12.4038 10.6741 13.0487 11.319 13.0487 12.1053C13.0694 12.589 12.8073 13.0528 12.4038 13.3149Z" fill="#FFB84D"/>
</g>
</svg>
