<?xml version="1.0" standalone="no"?><!DOCTYPE svg PUBLIC "-//W3C//DTD SVG 1.1//EN" "http://www.w3.org/Graphics/SVG/1.1/DTD/svg11.dtd"><svg t="1705472272218" class="icon" viewBox="0 0 1024 1024" version="1.1" xmlns="http://www.w3.org/2000/svg" p-id="12002" xmlns:xlink="http://www.w3.org/1999/xlink" width="200" height="200"><path d="M512 938.666667C276.352 938.666667 85.333333 747.648 85.333333 512S276.352 85.333333 512 85.333333s426.666667 191.018667 426.666667 426.666667-191.018667 426.666667-426.666667 426.666667z m0-85.333334a341.333333 341.333333 0 1 0 0-682.666666 341.333333 341.333333 0 0 0 0 682.666666z m42.666667-256a149.333333 149.333333 0 1 1-212.352-135.424 42.666667 42.666667 0 1 1 36.053333 77.354667A64 64 0 1 0 469.333333 597.333333v-170.666666a149.333333 149.333333 0 1 1 212.352 135.424 42.666667 42.666667 0 0 1-36.053333-77.354667A64 64 0 1 0 554.666667 426.666667v170.666666z" p-id="12003" fill="#707070"></path></svg>